# xmcd CD Database Entry
#
# Track frame offsets:
# 150
# 3012
# 20390
# 39417
# 56377
# 74665
# 89740
# 102535
# 119575
# 140327
# 152082
# 168582
# 179357
# 208490
#
# Disc length: 2793 seconds
#
# Revision: 2
# Processed by: cddbd v1.4PL0 Copyright (c) Steve Scherf et al.
# Submitted via: tcd 2.0b
#
DISCID=c80ae70e
DTITLE=Lane and the Badass Chicken Bones
DYEAR=1900
DGENRE=
TTITLE0=Intro
TTITLE1=Wild Freeway Flowers
TTITLE2=Remind Me
TTITLE3=White Trash
TTITLE4=Greasy Town
TTITLE5=Smokin'
TTITLE6=Never Far Away
TTITLE7=Waitress Song
TTITLE8=I Wonder
TTITLE9=Las Vegas
TTITLE10=My Idol
TTITLE11=Walk A Mile
TTITLE12=Lucy
TTITLE13=Outro
EXTD=
EXTT0=
EXTT1=Wild Freeway Flowers
EXTT2=
EXTT3=
EXTT4=
EXTT5=
EXTT6=
EXTT7=
EXTT8=
EXTT9=
EXTT10=
EXTT11=
EXTT12=
EXTT13=
PLAYORDER=
